<svg width="1426" height="804" viewBox="0 0 1426 804" fill="none" xmlns="http://www.w3.org/2000/svg">
<path d="M1246.25 2L1424 102V2H1246.25Z" stroke="white" stroke-width="3.5" stroke-linejoin="round"/>
<path d="M1246.25 2V102L1068.5 2H1246.25Z" stroke="white" stroke-width="3.5" stroke-linejoin="round"/>
<path d="M1246.25 202H1068.5L1246.25 102V202Z" stroke="white" stroke-width="3.5" stroke-linejoin="round"/>
<path d="M1246.25 202L1424 102H1246.25V202Z" stroke="white" stroke-width="3.5" stroke-linejoin="round"/>
<path d="M1068.5 2L890.75 102V2H1068.5Z" stroke="white" stroke-width="3.5" stroke-linejoin="round"/>
<path d="M890.75 102L713 2H890.75V102Z" stroke="white" stroke-width="3.5" stroke-linejoin="round"/>
<path d="M713 102L890.75 202H713V102Z" stroke="white" stroke-width="3.5" stroke-linejoin="round"/>
<path d="M1068.5 202H890.75L1068.5 102V202Z" stroke="white" stroke-width="3.5" stroke-linejoin="round"/>
<path d="M890.75 202L1068.5 302V202H890.75Z" stroke="white" stroke-width="3.5" stroke-linejoin="round"/>
<path d="M713 202L890.75 302H713V202Z" stroke="white" stroke-width="3.5" stroke-linejoin="round"/>
<path d="M890.75 302L801.875 352H890.75V302Z" stroke="white" stroke-width="3.5" stroke-linejoin="round"/>
<path d="M713 302H801.875V352L713 302Z" stroke="white" stroke-width="3.5" stroke-linejoin="round"/>
<path d="M713 402L801.875 352H713V402Z" stroke="white" stroke-width="3.5" stroke-linejoin="round"/>
<path d="M801.875 402H890.75L801.875 352V402Z" stroke="white" stroke-width="3.5" stroke-linejoin="round"/>
<path d="M1068.5 402L890.75 302H1068.5V402Z" stroke="white" stroke-width="3.5" stroke-linejoin="round"/>
<path d="M1246.25 202V302H1424L1246.25 202Z" stroke="white" stroke-width="3.5" stroke-linejoin="round"/>
<path d="M1157.38 202L1246.25 252V202H1157.38Z" stroke="white" stroke-width="3.5" stroke-linejoin="round"/>
<path d="M1068.5 252L1157.38 202H1068.5V252Z" stroke="white" stroke-width="3.5" stroke-linejoin="round"/>
<path d="M1068.5 252L1157.38 302H1068.5V252Z" stroke="white" stroke-width="3.5" stroke-linejoin="round"/>
<path d="M1246.25 252H1157.38L1246.25 302V252Z" stroke="white" stroke-width="3.5" stroke-linejoin="round"/>
<path d="M1068.5 402H1246.25V302L1068.5 402Z" stroke="white" stroke-width="3.5" stroke-linejoin="round"/>
<path d="M1424 302V402L1246.25 302H1424Z" stroke="white" stroke-width="3.5" stroke-linejoin="round"/>
<path d="M713 102H535.25L713 2V102Z" stroke="white" stroke-width="3.5" stroke-linejoin="round"/>
<path d="M535.25 102V2L357.5 102H535.25Z" stroke="white" stroke-width="3.5" stroke-linejoin="round"/>
<path d="M357.5 102L535.25 202V102H357.5Z" stroke="white" stroke-width="3.5" stroke-linejoin="round"/>
<path d="M713 102V202H535.25L713 102Z" stroke="white" stroke-width="3.5" stroke-linejoin="round"/>
<path d="M357.5 2V102L179.75 2H357.5Z" stroke="white" stroke-width="3.5" stroke-linejoin="round"/>
<path d="M179.75 2V102L2 2H179.75Z" stroke="white" stroke-width="3.5" stroke-linejoin="round"/>
<path d="M179.75 202V102H2L179.75 202Z" stroke="white" stroke-width="3.5" stroke-linejoin="round"/>
<path d="M357.5 102V202L179.75 102H357.5Z" stroke="white" stroke-width="3.5" stroke-linejoin="round"/>
<path d="M357.5 202H179.75V302L357.5 202Z" stroke="white" stroke-width="3.5" stroke-linejoin="round"/>
<path d="M2 202L179.75 302H2V202Z" stroke="white" stroke-width="3.5" stroke-linejoin="round"/>
<path d="M179.75 402V302L2 402H179.75Z" stroke="white" stroke-width="3.5" stroke-linejoin="round"/>
<path d="M357.5 302L179.75 402V302H357.5Z" stroke="white" stroke-width="3.5" stroke-linejoin="round"/>
<path d="M713 202L624.125 252V202H713Z" stroke="white" stroke-width="3.5" stroke-linejoin="round"/>
<path d="M624.125 202L535.25 252H624.125V202Z" stroke="white" stroke-width="3.5" stroke-linejoin="round"/>
<path d="M624.125 252H535.25V302L624.125 252Z" stroke="white" stroke-width="3.5" stroke-linejoin="round"/>
<path d="M713 252V302L624.125 252H713Z" stroke="white" stroke-width="3.5" stroke-linejoin="round"/>
<path d="M357.5 302L535.25 202H357.5V302Z" stroke="white" stroke-width="3.5" stroke-linejoin="round"/>
<path d="M535.25 352V302H446.375L535.25 352Z" stroke="white" stroke-width="3.5" stroke-linejoin="round"/>
<path d="M446.375 302L357.5 352V302H446.375Z" stroke="white" stroke-width="3.5" stroke-linejoin="round"/>
<path d="M446.375 352V402L357.5 352H446.375Z" stroke="white" stroke-width="3.5" stroke-linejoin="round"/>
<path d="M446.375 352V402L535.25 352H446.375Z" stroke="white" stroke-width="3.5" stroke-linejoin="round"/>
<path d="M624.125 302L713 352H624.125V302Z" stroke="white" stroke-width="3.5" stroke-linejoin="round"/>
<path d="M624.125 352H535.25L624.125 302V352Z" stroke="white" stroke-width="3.5" stroke-linejoin="round"/>
<path d="M535.25 402H624.125V352L535.25 402Z" stroke="white" stroke-width="3.5" stroke-linejoin="round"/>
<path d="M624.125 402L713 352H624.125V402Z" stroke="white" stroke-width="3.5" stroke-linejoin="round"/>
<path d="M535.25 502V402L713 502H535.25Z" stroke="white" stroke-width="3.5" stroke-linejoin="round"/>
<path d="M535.25 402V452H446.375L535.25 402Z" stroke="white" stroke-width="3.5" stroke-linejoin="round"/>
<path d="M357.5 402V452H446.375L357.5 402Z" stroke="white" stroke-width="3.5" stroke-linejoin="round"/>
<path d="M446.375 452V502H357.5L446.375 452Z" stroke="white" stroke-width="3.5" stroke-linejoin="round"/>
<path d="M535.25 452V502L446.375 452H535.25Z" stroke="white" stroke-width="3.5" stroke-linejoin="round"/>
<path d="M535.25 602V502H357.5L535.25 602Z" stroke="white" stroke-width="3.5" stroke-linejoin="round"/>
<path d="M713 602H535.25L713 502V602Z" stroke="white" stroke-width="3.5" stroke-linejoin="round"/>
<path d="M268.625 402L357.5 452H268.625V402Z" stroke="white" stroke-width="3.5" stroke-linejoin="round"/>
<path d="M268.625 452V402H179.75L268.625 452Z" stroke="white" stroke-width="3.5" stroke-linejoin="round"/>
<path d="M268.625 452L179.75 502V452H268.625Z" stroke="white" stroke-width="3.5" stroke-linejoin="round"/>
<path d="M357.5 452H268.625L357.5 502V452Z" stroke="white" stroke-width="3.5" stroke-linejoin="round"/>
<path d="M2 502V402H179.75L2 502Z" stroke="white" stroke-width="3.5" stroke-linejoin="round"/>
<path d="M179.75 602V502H2L179.75 602Z" stroke="white" stroke-width="3.5" stroke-linejoin="round"/>
<path d="M357.5 602H179.75V502L357.5 602Z" stroke="white" stroke-width="3.5" stroke-linejoin="round"/>
<path d="M357.5 602H2L357.5 802V602Z" stroke="white" stroke-width="3.5" stroke-linejoin="round"/>
<path d="M713 702L535.25 602V702H713Z" stroke="white" stroke-width="3.5" stroke-linejoin="round"/>
<path d="M535.25 702L357.5 602H535.25V702Z" stroke="white" stroke-width="3.5" stroke-linejoin="round"/>
<path d="M535.25 802V702H357.5L535.25 802Z" stroke="white" stroke-width="3.5" stroke-linejoin="round"/>
<path d="M535.25 702V802L713 702H535.25Z" stroke="white" stroke-width="3.5" stroke-linejoin="round"/>
<path d="M1424 502V402L1246.25 502H1424Z" stroke="white" stroke-width="3.5" stroke-linejoin="round"/>
<path d="M1246.25 452H1157.38V402L1246.25 452Z" stroke="white" stroke-width="3.5" stroke-linejoin="round"/>
<path d="M1157.38 402H1068.5V452L1157.38 402Z" stroke="white" stroke-width="3.5" stroke-linejoin="round"/>
<path d="M1157.38 502H1068.5V452L1157.38 502Z" stroke="white" stroke-width="3.5" stroke-linejoin="round"/>
<path d="M1246.25 502L1157.38 452V502H1246.25Z" stroke="white" stroke-width="3.5" stroke-linejoin="round"/>
<path d="M1246.25 602H1068.5V502L1246.25 602Z" stroke="white" stroke-width="3.5" stroke-linejoin="round"/>
<path d="M1424 602V502H1246.25L1424 602Z" stroke="white" stroke-width="3.5" stroke-linejoin="round"/>
<path d="M890.75 402L1068.5 502H890.75V402Z" stroke="white" stroke-width="3.5" stroke-linejoin="round"/>
<path d="M713 502V402H890.75L713 502Z" stroke="white" stroke-width="3.5" stroke-linejoin="round"/>
<path d="M890.75 502V602L713 502H890.75Z" stroke="white" stroke-width="3.5" stroke-linejoin="round"/>
<path d="M1068.5 502L979.625 552H1068.5V502Z" stroke="white" stroke-width="3.5" stroke-linejoin="round"/>
<path d="M979.625 502V552H890.75L979.625 502Z" stroke="white" stroke-width="3.5" stroke-linejoin="round"/>
<path d="M979.625 602H890.75V552L979.625 602Z" stroke="white" stroke-width="3.5" stroke-linejoin="round"/>
<path d="M1068.5 602L979.625 552H1068.5V602Z" stroke="white" stroke-width="3.5" stroke-linejoin="round"/>
<path d="M1068.5 702V602H890.75L1068.5 702Z" stroke="white" stroke-width="3.5" stroke-linejoin="round"/>
<path d="M890.75 652H801.875V602L890.75 652Z" stroke="white" stroke-width="3.5" stroke-linejoin="round"/>
<path d="M713 652L801.875 602H713V652Z" stroke="white" stroke-width="3.5" stroke-linejoin="round"/>
<path d="M713 702L801.875 652H713V702Z" stroke="white" stroke-width="3.5" stroke-linejoin="round"/>
<path d="M890.75 702H801.875L890.75 652V702Z" stroke="white" stroke-width="3.5" stroke-linejoin="round"/>
<path d="M713 802V702L890.75 802H713Z" stroke="white" stroke-width="3.5" stroke-linejoin="round"/>
<path d="M890.75 702V802H1068.5L890.75 702Z" stroke="white" stroke-width="3.5" stroke-linejoin="round"/>
<path d="M1424 602V802H1068.5L1424 602Z" stroke="white" stroke-width="3.5" stroke-linejoin="round"/>
</svg>
