<svg xmlns="http://www.w3.org/2000/svg" version="1.1" throwIfNamespace: 'false' xmlns:xlink="http://www.w3.org/1999/xlink" xmlns:svgjs="http://svgjs.dev/svgjs" viewBox="0 0 800 800"><defs><linearGradient x1="50%" y1="0%" x2="50%" y2="100%" id="cccoil-grad"><stop stop-color="hsl(206, 75%, 49%)" stop-opacity="1" offset="0%"></stop><stop stop-color="hsl(305, 90%, 56%)" stop-opacity="1" offset="100%"></stop></linearGradient></defs><g stroke="url(#cccoil-grad)" fill="none" stroke-linecap="round"><circle r="410" cx="400" cy="400" stroke-width="5" stroke-dasharray="2576 2576" transform="rotate(360, 400, 400)" opacity="0.05"></circle><circle r="389.5" cx="400" cy="400" stroke-width="5" stroke-dasharray="2318 2447" transform="rotate(341, 400, 400)" opacity="0.10"></circle><circle r="369" cx="400" cy="400" stroke-width="5" stroke-dasharray="2074 2318" transform="rotate(322, 400, 400)" opacity="0.15"></circle><circle r="348.5" cx="400" cy="400" stroke-width="5" stroke-dasharray="1844 2190" transform="rotate(303, 400, 400)" opacity="0.20"></circle><circle r="328" cx="400" cy="400" stroke-width="5" stroke-dasharray="1627 2061" transform="rotate(284, 400, 400)" opacity="0.25"></circle><circle r="307.5" cx="400" cy="400" stroke-width="5" stroke-dasharray="1424 1932" transform="rotate(265, 400, 400)" opacity="0.30"></circle><circle r="287" cx="400" cy="400" stroke-width="5" stroke-dasharray="1234 1803" transform="rotate(246, 400, 400)" opacity="0.35"></circle><circle r="266.5" cx="400" cy="400" stroke-width="5" stroke-dasharray="1058 1674" transform="rotate(227, 400, 400)" opacity="0.40"></circle><circle r="246" cx="400" cy="400" stroke-width="5" stroke-dasharray="895 1546" transform="rotate(208, 400, 400)" opacity="0.45"></circle><circle r="225.5" cx="400" cy="400" stroke-width="5" stroke-dasharray="746 1417" transform="rotate(189, 400, 400)" opacity="0.50"></circle><circle r="205" cx="400" cy="400" stroke-width="5" stroke-dasharray="610 1288" transform="rotate(171, 400, 400)" opacity="0.55"></circle><circle r="184.5" cx="400" cy="400" stroke-width="5" stroke-dasharray="488 1159" transform="rotate(152, 400, 400)" opacity="0.60"></circle><circle r="164" cx="400" cy="400" stroke-width="5" stroke-dasharray="380 1030" transform="rotate(133, 400, 400)" opacity="0.65"></circle><circle r="143.5" cx="400" cy="400" stroke-width="5" stroke-dasharray="285 902" transform="rotate(114, 400, 400)" opacity="0.70"></circle><circle r="123" cx="400" cy="400" stroke-width="5" stroke-dasharray="203 773" transform="rotate(95, 400, 400)" opacity="0.75"></circle><circle r="102.5" cx="400" cy="400" stroke-width="5" stroke-dasharray="136 644" transform="rotate(76, 400, 400)" opacity="0.80"></circle><circle r="82" cx="400" cy="400" stroke-width="5" stroke-dasharray="81 515" transform="rotate(57, 400, 400)" opacity="0.85"></circle><circle r="61.5" cx="400" cy="400" stroke-width="5" stroke-dasharray="41 386" transform="rotate(38, 400, 400)" opacity="0.90"></circle><circle r="41" cx="400" cy="400" stroke-width="5" stroke-dasharray="14 258" transform="rotate(19, 400, 400)" opacity="0.95"></circle><circle r="20.5" cx="400" cy="400" stroke-width="5" stroke-dasharray="0 129" opacity="1.00"></circle></g></svg>